<svg width="117" height="53" viewBox="0 0 117 53" fill="none" xmlns="http://www.w3.org/2000/svg">
<g clip-path="url(#clip0_160_99542)">
<path d="M32.3854 39.225C33.6526 36.8716 34.5182 34.845 35.1076 32.8552C35.6638 30.9938 35.9953 28.9819 36.1242 26.7129C36.2495 24.5982 36.1942 22.5423 36.1132 20.2623L36.0579 18.691C36.0432 18.3752 35.9658 18.0779 35.8369 17.8392C35.6527 17.4721 35.3544 17.1637 34.9529 16.925C32.6396 15.5446 30.6873 14.4762 28.8087 13.5584C25.4162 11.8989 22.2189 10.7424 19.04 10.0265C17.2461 9.62268 15.3675 9.33264 13.4521 9.16376C12.0302 9.03893 10.5789 8.98019 9.01343 8.98019C8.68928 8.98019 8.36513 8.98019 8.03729 8.98753C9.92326 8.05133 11.9087 7.27667 13.9641 6.66722C16.1668 6.01739 18.4838 5.56214 20.8449 5.31615C22.1673 5.17664 23.5192 5.10321 24.8563 5.10321C25.4088 5.10321 25.9724 5.11423 26.5286 5.13993C30.1864 5.2978 33.8552 5.96232 37.4356 7.11146C40.4524 8.0807 43.4139 9.39138 46.4934 11.1206C46.567 11.161 46.5965 11.1904 46.6002 11.1904C46.6002 11.2014 46.6112 11.2381 46.6039 11.3189C46.5818 11.7558 46.5633 12.1926 46.5449 12.6295V12.7287C46.5007 13.7089 46.4602 14.7186 46.3755 15.6988C46.2355 17.2922 46.0624 18.7424 45.8451 20.1412L45.834 20.2146C44.5742 28.2549 40.8686 35.047 34.8202 40.4035C33.0558 41.9638 31.1478 43.4104 29.1402 44.7137C30.2195 42.9992 31.354 41.1194 32.3744 39.225H32.3854ZM50.56 11.5759C50.5084 11.2271 50.4568 10.8783 50.409 10.5258C50.339 10.0045 50.1843 9.55292 49.9338 9.1454C49.7091 8.78193 49.4107 8.45885 49.0424 8.19084C46.5928 6.41757 44.2427 4.99674 41.8595 3.8476C36.5552 1.296 31.0336 0 25.4457 0H25.2762C23.6886 0.0110141 22.2631 0.0917844 20.9223 0.242311C18.959 0.462594 17.0141 0.829731 15.1391 1.33638C12.045 2.17346 8.96554 3.51718 5.72404 5.44098C4.20642 6.34047 2.99822 7.1959 1.92263 8.13577C1.17119 8.79295 0.725484 9.56761 0.559725 10.5001C0.228207 12.3579 0.0440308 14.1789 0.00719551 15.9154C-0.0222727 17.4023 0.0550814 18.9186 0.239258 20.4275C0.316612 21.0627 0.401333 21.6318 0.497105 22.1641C1.35905 27.1058 3.20818 31.6987 5.98925 35.8216V35.829L6.0666 35.9391C9.06132 40.3301 13.0064 44.0272 17.7913 46.9275C19.7951 48.1464 21.9242 49.1524 23.8065 50.0409C24.359 50.3015 24.9005 50.4264 25.4641 50.4264C25.965 50.4264 26.4586 50.3272 26.9743 50.118C28.5398 49.4865 30.179 48.6788 32.1313 47.5811C32.3154 47.4783 32.4996 47.3791 32.6875 47.2727C33.4831 46.8358 34.3009 46.3842 35.0744 45.8371C37.1446 44.3759 38.9053 42.9 40.4597 41.325C43.5244 38.2227 45.8414 34.9846 47.5395 31.427C49.2413 27.8584 50.3205 24.154 50.7515 20.4202C50.8804 19.3628 50.9541 18.2614 50.9725 17.1563C50.9983 15.8787 50.9099 14.6415 50.8178 13.5988C50.7589 12.9159 50.6594 12.2404 50.5563 11.5722L50.56 11.5759ZM4.10328 13.1362C4.10328 12.8682 4.13643 12.5818 4.17695 12.2808C4.32429 12.2734 4.46795 12.2661 4.61529 12.2624C5.00206 12.2514 5.38883 12.2477 5.77561 12.2477C7.36689 12.2477 8.96186 12.3395 10.5163 12.5194C15.106 13.0554 19.4268 14.2156 23.3571 15.9705C25.8766 17.0939 28.002 18.3789 29.8549 19.9025C30.0574 20.0677 30.2564 20.244 30.4589 20.4275C30.5363 20.4973 30.6137 20.5634 30.6947 20.6368C30.8862 22.1641 31.0778 23.9521 31.0962 25.7327C31.1183 28.31 30.7021 30.935 29.8217 33.7657C29.0518 36.2549 28.0204 38.8395 26.4771 42.1474C25.9835 43.2048 25.4604 44.2768 24.941 45.3415C24.8084 45.6095 24.6795 45.8775 24.5469 46.1492C23.4013 45.5985 22.3552 44.9523 21.4674 44.3759C17.2498 41.6371 13.7136 38.2558 10.9657 34.331C10.7263 33.9896 10.4942 33.6445 10.2658 33.2994C7.84575 29.595 6.09239 25.4683 5.061 21.0333C4.98733 20.7213 4.92103 20.4092 4.85472 20.0971C4.3464 17.6593 4.0996 15.3867 4.10697 13.1472L4.10328 13.1362Z" fill="#2A2B2A"/>
<path d="M98.9213 10.1624L88.8653 27.5243L84.3824 19.7777L79.3176 11.0361L78.8203 10.1624H65.4785C59.7028 10.1624 54.6821 14.4505 53.7981 20.1375C53.706 20.7359 53.6581 21.3454 53.6581 21.9511C53.6581 28.4495 58.9624 33.7363 65.4785 33.7363H82.5112L79.3765 28.3504H65.4785C61.9387 28.3504 59.0581 25.4793 59.0581 21.9475C59.0581 21.4629 59.1134 20.9856 59.2202 20.5267C59.8796 17.6409 62.5096 15.5483 65.4785 15.5483H75.6893L78.7392 20.8167L86.2242 33.7363H91.5027L105.158 10.1624H98.9176H98.9213Z" fill="#2A2B2A"/>
<path d="M108.694 10.1624L103.124 19.7777L95.0351 33.7363H101.279L114.933 10.1624H108.694Z" fill="#2A2B2A"/>
<path d="M63.3457 19.2564C61.8576 19.2564 60.6457 20.4642 60.6457 21.9475C60.6457 23.4307 61.8576 24.6386 63.3457 24.6386H77.2216L74.0869 19.2527H63.3457V19.2564Z" fill="#2A2B2A"/>
<path d="M32.4477 39.3571C33.7148 37.0037 34.5805 34.9771 35.1698 32.9872C35.726 31.1258 36.0576 29.1139 36.1865 26.845C36.3117 24.7303 36.2565 22.6743 36.1754 20.3944L36.1202 18.8231C36.1054 18.5073 36.0244 18.2099 35.8992 17.9713C35.7113 17.6078 35.4166 17.2958 35.0151 17.0571C32.7019 15.6767 30.7496 14.6083 28.871 13.6905C25.4784 12.031 22.2811 10.8745 19.1023 10.1586C17.3084 9.75475 15.4298 9.46471 13.5143 9.29583C12.0925 9.171 10.6412 9.11226 9.07569 9.11226C8.75153 9.11226 8.42738 9.11226 8.09955 9.1196C9.98552 8.1834 11.9709 7.40874 14.0264 6.79929C16.2291 6.14946 18.546 5.69421 20.9072 5.44823C22.2296 5.30871 23.5814 5.23529 24.9186 5.23529C25.4711 5.23529 26.0347 5.2463 26.5909 5.272C30.2486 5.42987 33.9174 6.09439 37.4978 7.24353C40.5146 8.21277 43.4762 9.52345 46.5556 11.2527C46.6293 11.2931 46.6588 11.3224 46.6624 11.3224C46.6624 11.3334 46.6698 11.3702 46.6661 11.4509C46.644 11.8878 46.6256 12.3247 46.6072 12.7616V12.8607C46.563 13.841 46.5225 14.8506 46.4377 15.8309C46.2978 17.4243 46.1246 18.8745 45.9073 20.2732L45.8963 20.3467C44.6365 28.387 40.9309 35.179 34.8825 40.5356C33.1181 42.0959 31.21 43.5424 29.2025 44.8458C30.2818 43.1312 31.4163 41.2515 32.4366 39.3571H32.4477ZM50.6222 11.7079C50.5707 11.3591 50.5191 11.0104 50.4712 10.6579C50.4012 10.1366 50.2465 9.68499 49.996 9.27747C49.7713 8.91401 49.473 8.59092 49.1046 8.32291C46.6551 6.54964 44.305 5.12882 41.9217 3.97967C36.6174 1.42807 31.0958 0.135742 25.5079 0.135742H25.3385C23.7509 0.146756 22.3253 0.227527 20.9845 0.378053C19.0212 0.598336 17.0763 0.965474 15.2014 1.47212C12.1072 2.3092 9.0278 3.65292 5.78629 5.57672C4.26868 6.47621 3.06048 7.33164 1.98489 8.27151C1.23345 8.92869 0.78774 9.70335 0.621981 10.6359C0.290463 12.4936 0.106287 14.3146 0.0694514 16.0512C0.0399831 17.5381 0.117337 19.0543 0.301514 20.5633C0.378868 21.1984 0.463589 21.7675 0.559361 22.2998C1.42131 27.2415 3.27044 31.8344 6.05151 35.9574V35.9647L6.12886 36.0749C9.12357 40.4658 13.0686 44.1629 17.8535 47.0633C19.8574 48.2822 21.9865 49.2881 23.8687 50.1766C24.4213 50.4373 24.9628 50.5621 25.5263 50.5621C26.0273 50.5621 26.5209 50.463 27.0366 50.2537C28.6021 49.6222 30.2413 48.8145 32.1935 47.7168C32.3777 47.614 32.5619 47.5149 32.7497 47.4084C33.5454 46.9715 34.3631 46.5199 35.1367 45.9729C37.2068 44.5117 38.9675 43.0358 40.522 41.4608C43.5867 38.3585 45.9036 35.1203 47.6017 31.5627C49.3035 27.9942 50.3754 24.2897 50.8138 20.5559C50.939 19.4986 51.0164 18.3972 51.0348 17.2921C51.0606 16.0144 50.9722 14.7772 50.8801 13.7345C50.8211 13.0516 50.7217 12.3761 50.6186 11.7079H50.6222ZM4.16185 13.2683C4.16185 13.0002 4.19501 12.7139 4.23553 12.4128C4.38287 12.4055 4.52652 12.3981 4.67387 12.3945C5.06064 12.3835 5.44741 12.3798 5.83418 12.3798C7.42546 12.3798 9.02043 12.4716 10.5749 12.6515C15.1646 13.1875 19.4853 14.3476 23.4157 16.1026C25.9352 17.226 28.0606 18.511 29.9134 20.0346C30.116 20.1998 30.3149 20.376 30.5175 20.5596C30.5949 20.6294 30.6722 20.6955 30.7533 20.7689C30.9448 22.2962 31.1364 24.0841 31.1548 25.8648C31.1769 28.4421 30.7606 31.0671 29.8803 33.8977C29.1104 36.3869 28.079 38.9716 26.5356 42.2795C26.042 43.3368 25.519 44.4089 24.9996 45.4736C24.867 45.7416 24.7381 46.0096 24.6055 46.2813C23.4599 45.7306 22.4138 45.0844 21.526 44.508C17.3084 41.7692 13.7722 38.3878 11.0243 34.4631C10.7848 34.1217 10.5528 33.7766 10.3244 33.4315C7.90432 29.727 6.15096 25.6004 5.11957 21.1654C5.0459 20.8533 4.9796 20.5413 4.91329 20.2292C4.40497 17.7914 4.15817 15.5188 4.16554 13.2793L4.16185 13.2683Z" fill="#2A2B2A"/>
<path d="M98.9838 10.2981L88.9277 27.66L84.4449 19.9134L79.38 11.1719L78.8827 10.2981H65.541C59.7652 10.2981 54.7446 14.5863 53.8605 20.2732C53.7684 20.8717 53.7206 21.4811 53.7206 22.0869C53.7206 28.5852 59.0248 33.872 65.541 33.872H82.5736L79.439 28.4861H65.541C62.0011 28.4861 59.1206 25.6151 59.1206 22.0832C59.1206 21.5986 59.1759 21.1213 59.2827 20.6624C59.9494 17.7804 62.5721 15.684 65.541 15.684H75.7517L78.8017 20.9524L86.2866 33.872H91.5651L105.22 10.2981H98.9801H98.9838Z" fill="#2A2B2A"/>
<path d="M108.756 10.2981L103.183 19.9098L95.0977 33.872H101.341L114.996 10.2981H108.756Z" fill="#2A2B2A"/>
<path d="M63.4082 19.3884C61.92 19.3884 60.7082 20.5963 60.7082 22.0796C60.7082 23.5628 61.92 24.7707 63.4082 24.7707H77.2841L74.1494 19.3848H63.4082V19.3884Z" fill="#2A2B2A"/>
<path d="M32.5071 39.4931C33.7742 37.1397 34.6398 35.1131 35.2292 33.1232C35.7854 31.2618 36.1169 29.2499 36.2458 26.981C36.3711 24.8663 36.3158 22.8103 36.2348 20.5304L36.1795 18.959C36.1648 18.6433 36.0838 18.3459 35.9585 18.1073C35.7707 17.7438 35.476 17.4318 35.0745 17.1931C32.7612 15.8127 30.809 14.7443 28.9303 13.8265C25.5378 12.167 22.3405 11.0105 19.1616 10.2946C17.3677 9.89075 15.4891 9.60071 13.5737 9.43182C12.1519 9.307 10.7006 9.24826 9.13505 9.24826C8.8109 9.24826 8.48675 9.24826 8.15892 9.2556C10.0449 8.3194 12.0303 7.54474 14.0857 6.93529C16.2885 6.28545 18.6054 5.8302 20.9666 5.58422C22.2889 5.44471 23.6408 5.37128 24.9779 5.37128C25.5304 5.37128 26.094 5.38229 26.6502 5.40799C30.308 5.56586 33.9768 6.23038 37.5572 7.37952C40.574 8.34877 43.5356 9.65945 46.615 11.3887C46.6887 11.4291 46.7181 11.4584 46.7218 11.4584C46.7218 11.4694 46.7292 11.5062 46.7255 11.5869C46.7034 12.0238 46.685 12.4607 46.6666 12.8976V12.9967C46.6224 13.977 46.5818 14.9866 46.4971 15.9669C46.3571 17.5603 46.184 19.0104 45.9667 20.4092L45.9556 20.4827C44.6959 28.523 40.9902 35.315 34.9419 40.6716C33.1775 42.2319 31.2694 43.6784 29.2619 44.9818C30.3411 43.2672 31.4757 41.3875 32.496 39.4931H32.5071ZM50.6816 11.8439C50.63 11.4951 50.5785 11.1464 50.5306 10.7939C50.4606 10.2726 50.3059 9.82099 50.0554 9.41347C49.8307 9.05 49.5323 8.72692 49.164 8.45891C46.7144 6.68563 44.3643 5.26481 41.9811 4.11567C36.6805 1.56406 31.1589 0.268066 25.571 0.268066H25.4015C23.8139 0.279081 22.3884 0.359851 21.0476 0.510377C19.0843 0.73066 17.1394 1.0978 15.2644 1.60445C12.1703 2.44152 9.09085 3.78525 5.84934 5.70905C4.33173 6.60853 3.12353 7.46397 2.04794 8.40384C1.2965 9.06101 0.850789 9.83568 0.68503 10.7682C0.353513 12.6259 0.169336 14.4469 0.132501 16.1835C0.103032 17.6704 0.180387 19.1867 0.364563 20.6956C0.441917 21.3308 0.526639 21.8998 0.62241 22.4322C1.48436 27.3738 3.33349 31.9667 6.11456 36.0897V36.097L6.19191 36.2072C9.18662 40.5981 13.1317 44.2952 17.9166 47.1956C19.9204 48.4145 22.0495 49.4205 23.9318 50.3089C24.4843 50.5696 25.0258 50.6944 25.5894 50.6944C26.0903 50.6944 26.5839 50.5953 27.0996 50.386C28.6651 49.7546 30.3043 48.9469 32.2566 47.8491C32.4408 47.7463 32.6249 47.6472 32.8128 47.5407C33.6084 47.1038 34.4262 46.6522 35.1997 46.1052C37.2699 44.644 39.0306 43.1681 40.585 41.5931C43.6497 38.4908 45.9667 35.2526 47.6648 31.6951C49.3666 28.1265 50.4385 24.4221 50.8768 20.6883C51.0021 19.6309 51.0794 18.5295 51.0978 17.4244C51.1236 16.1468 51.0352 14.9095 50.9431 13.8668C50.8842 13.184 50.7847 12.5084 50.6816 11.8402V11.8439ZM4.22122 13.4043C4.22122 13.1362 4.25437 12.8499 4.29489 12.5488C4.44223 12.5415 4.58589 12.5341 4.73323 12.5305C5.12 12.5195 5.50677 12.5158 5.89354 12.5158C7.48483 12.5158 9.0798 12.6076 10.6342 12.7875C15.2239 13.3235 19.5447 14.4836 23.475 16.2386C25.9946 17.362 28.12 18.647 29.9728 20.1706C30.1754 20.3358 30.3743 20.512 30.5769 20.6956C30.6542 20.7654 30.7316 20.8315 30.8126 20.9049C31.0042 22.4322 31.1957 24.2201 31.2141 26.0007C31.2362 28.5781 30.82 31.2031 29.9396 34.0337C29.1698 36.5229 28.1384 39.1076 26.595 42.4155C26.1014 43.4728 25.5783 44.5449 25.059 45.6096C24.9264 45.8776 24.7974 46.1456 24.6648 46.4173C23.5192 45.8666 22.4731 45.2204 21.5854 44.644C17.3677 41.9052 13.8316 38.5238 11.0836 34.5991C10.8442 34.2577 10.6121 33.9126 10.3838 33.5675C7.96369 29.863 6.21033 25.7364 5.17894 21.3014C5.10527 20.9893 5.03896 20.6773 4.97266 20.3652C4.46433 17.9274 4.21754 15.6548 4.2249 13.4153L4.22122 13.4043Z" fill="#2A2B2A"/>
<path d="M99.0464 10.4304L88.9903 27.7924L84.5074 20.0458L79.4426 11.3042L78.9453 10.4304H65.6036C59.8278 10.4304 54.8071 14.7186 53.9231 20.4056C53.831 21.004 53.7831 21.6134 53.7831 22.2192C53.7831 28.7176 59.0874 34.0043 65.6036 34.0043H82.6362L79.5015 28.6184H65.6036C62.0637 28.6184 59.1832 25.7474 59.1832 22.2155C59.1832 21.7309 59.2384 21.2536 59.3452 20.7947C60.012 17.9127 62.6346 15.8163 65.6036 15.8163H75.8143L78.8643 21.0848L86.3492 34.0043H91.6277L105.283 10.4304H99.0427H99.0464Z" fill="#2A2B2A"/>
<path d="M108.819 10.4304L103.246 20.0458L95.1603 34.0043H101.4L115.059 10.4304H108.819Z" fill="#2A2B2A"/>
<path d="M63.4709 19.5244C61.9828 19.5244 60.7709 20.7323 60.7709 22.2155C60.7709 23.6988 61.9828 24.9067 63.4709 24.9067H77.3468L74.2121 19.5208H63.4709V19.5244Z" fill="#2A2B2A"/>
<path d="M32.5696 39.6251C33.8367 37.2718 34.7023 35.2452 35.2917 33.2553C35.8479 31.3939 36.1794 29.382 36.3083 27.1131C36.4336 24.9984 36.3783 22.9424 36.2973 20.6625L36.242 19.0911C36.2273 18.7754 36.1463 18.478 36.021 18.2394C35.8332 17.8759 35.5385 17.5638 35.137 17.3252C32.8237 15.9448 30.8714 14.8764 28.9928 13.9585C25.6003 12.2991 22.403 11.1426 19.2241 10.4267C17.4302 10.0228 15.5516 9.73279 13.6362 9.5639C12.2144 9.43908 10.7631 9.38034 9.19755 9.38034C8.8734 9.38034 8.54925 9.38034 8.22142 9.38768C10.1074 8.45148 12.0928 7.67682 14.1482 7.06737C16.351 6.41753 18.6679 5.96228 21.0291 5.7163C22.3514 5.57679 23.7033 5.50336 25.0404 5.50336C25.5929 5.50336 26.1565 5.51438 26.7127 5.54007C30.3705 5.69794 34.0393 6.36246 37.6197 7.5116C40.6365 8.48085 43.598 9.79153 46.6775 11.5207C46.7512 11.5611 46.7806 11.5905 46.7843 11.5905C46.7843 11.6015 46.7917 11.6382 46.788 11.719C46.7659 12.1559 46.7475 12.5928 46.7291 13.0297V13.1288C46.6848 14.1091 46.6443 15.1187 46.5596 16.099C46.4196 17.6923 46.2465 19.1425 46.0292 20.5413L46.0181 20.6148C44.7584 28.6551 41.0527 35.4471 35.0044 40.8037C33.24 42.364 31.3319 43.8105 29.3244 45.1139C30.4036 43.3993 31.5382 41.5196 32.5585 39.6251H32.5696ZM50.7441 11.976C50.6925 11.6272 50.641 11.2784 50.5931 10.926C50.5231 10.4046 50.3684 9.95307 50.1179 9.54555C49.8932 9.18208 49.5948 8.859 49.2265 8.59099C46.7769 6.81771 44.4268 5.39689 42.0436 4.24775C36.743 1.69247 31.2214 0.400146 25.6335 0.400146H25.464C23.8764 0.411161 22.4509 0.491931 21.1101 0.642457C19.1468 0.86274 17.2019 1.22988 15.3269 1.73653C12.2328 2.5736 9.15335 3.91733 5.91184 5.84113C4.39423 6.74061 3.18603 7.59605 2.11044 8.53592C1.359 9.1931 0.913289 9.96776 0.74753 10.9003C0.416013 12.758 0.231836 14.579 0.195001 16.3156C0.165532 17.8025 0.242887 19.3188 0.427063 20.8277C0.504417 21.4628 0.589139 22.0319 0.68491 22.5643C1.54686 27.5059 3.39599 32.0988 6.17706 36.2218V36.2291L6.25441 36.3393C9.24912 40.7302 13.1942 44.4273 17.9791 47.3277C19.9829 48.5466 22.112 49.5525 23.9943 50.441C24.5468 50.7017 25.0883 50.8265 25.6519 50.8265C26.1528 50.8265 26.6464 50.7274 27.1621 50.5181C28.7276 49.8866 30.3668 49.0789 32.3191 47.9812C32.5033 47.8784 32.6874 47.7793 32.8753 47.6728C33.6709 47.2359 34.4887 46.7843 35.2622 46.2373C37.3324 44.7761 39.0931 43.3002 40.6475 41.7252C43.7122 38.6229 46.0292 35.3847 47.7273 31.8271C49.4291 28.2586 50.501 24.5541 50.9393 20.8203C51.0646 19.763 51.1419 18.6616 51.1603 17.5565C51.1861 16.2789 51.0977 15.0416 51.0056 13.9989C50.9467 13.3161 50.8472 12.6405 50.7441 11.9723V11.976ZM4.2874 13.5363C4.2874 13.2683 4.32056 12.982 4.36107 12.6809C4.50842 12.6736 4.65207 12.6662 4.79941 12.6625C5.18619 12.6515 5.57296 12.6479 5.95973 12.6479C7.55101 12.6479 9.14598 12.7396 10.7004 12.9195C15.2901 13.4556 19.6109 14.6157 23.5412 16.3706C26.0608 17.4941 28.1862 18.7791 30.039 20.3027C30.2416 20.4679 30.4405 20.6441 30.6431 20.8277C30.7204 20.8974 30.7978 20.9635 30.8788 21.037C31.0704 22.5643 31.2619 24.3522 31.2803 26.1328C31.3024 28.7101 30.8862 31.3352 30.0058 34.1658C29.236 36.655 28.2046 39.2396 26.6612 42.5476C26.1676 43.6049 25.6445 44.677 25.1251 45.7417C24.9925 46.0097 24.8636 46.2777 24.731 46.5494C23.5854 45.9987 22.5393 45.3525 21.6516 44.7761C17.4339 42.0372 13.8977 38.6559 11.1498 34.7312C10.9104 34.3898 10.6783 34.0446 10.45 33.6995C8.02987 29.9951 6.27651 25.8685 5.24512 21.4335C5.17145 21.1214 5.10515 20.8093 5.03884 20.4973C4.53052 18.0595 4.28372 15.7869 4.29109 13.5473L4.2874 13.5363Z" fill="#2A2B2A"/>
<path d="M99.109 10.5662L89.053 27.9281L84.5701 20.1815L79.5053 11.4399L79.008 10.5662H65.6662C59.8905 10.5662 54.8698 14.8543 53.9858 20.5413C53.8937 21.1397 53.8458 21.7492 53.8458 22.355C53.8458 28.8533 59.1501 34.1401 65.6662 34.1401H82.6989L79.5642 28.7542H65.6662C62.1264 28.7542 59.2459 25.8831 59.2459 22.3513C59.2459 21.8667 59.3011 21.3894 59.4079 20.9305C60.0746 18.0484 62.6973 15.9521 65.6662 15.9521H75.877L78.927 21.2205L86.4119 34.1401H91.6904L105.345 10.5662H99.1053H99.109Z" fill="#2A2B2A"/>
<path d="M108.881 10.5662L103.308 20.1778L95.223 34.1401H101.463L115.121 10.5662H108.881Z" fill="#2A2B2A"/>
<path d="M63.5297 19.6602C62.0416 19.6602 60.8297 20.868 60.8297 22.3513C60.8297 23.8345 62.0416 25.0424 63.5297 25.0424H77.4056L74.2709 19.6565H63.5297V19.6602Z" fill="#2A2B2A"/>
<path d="M32.6325 39.7611C33.8996 37.4078 34.7653 35.3812 35.3546 33.3913C35.9109 31.5299 36.2424 29.518 36.3713 27.2491C36.4965 25.1344 36.4413 23.0784 36.3602 20.7985L36.305 19.2271C36.2903 18.9114 36.2092 18.614 36.084 18.3754C35.8961 18.0119 35.6014 17.6998 35.1999 17.4612C32.8867 16.0807 30.9344 15.0124 29.0558 14.0945C25.6633 12.4351 22.466 11.2786 19.2871 10.5627C17.4932 10.1588 15.6146 9.86877 13.6992 9.69989C12.2773 9.57506 10.826 9.51632 9.26051 9.51632C8.93636 9.51632 8.61221 9.51632 8.28437 9.52366C10.1703 8.58746 12.1558 7.8128 14.2112 7.20335C16.4139 6.55352 18.7309 6.09827 21.092 5.85229C22.4144 5.71277 23.7663 5.63935 25.1034 5.63935C25.6559 5.63935 26.2195 5.65036 26.7757 5.67606C30.4334 5.83393 34.1022 6.49845 37.6826 7.64759C40.6994 8.61683 43.661 9.92752 46.7404 11.6567C46.8141 11.6971 46.8436 11.7265 46.8473 11.7265C46.8473 11.7375 46.8546 11.7742 46.8509 11.855C46.8288 12.2919 46.8104 12.7288 46.792 13.1657V13.2648C46.7478 14.2451 46.7073 15.2547 46.6226 16.2349C46.4826 17.8283 46.3095 19.2785 46.0921 20.6773L46.0811 20.7507C44.8213 28.7911 41.1157 35.5831 35.0673 40.9396C33.3029 42.5 31.3948 43.9465 29.3873 45.2498C30.4666 43.5353 31.6011 41.6556 32.6215 39.7611H32.6325ZM50.8071 12.112C50.7555 11.7632 50.7039 11.4144 50.656 11.062C50.5861 10.5406 50.4313 10.0891 50.1809 9.68153C49.9562 9.31807 49.6578 8.99499 49.2894 8.72698C46.8399 6.9537 44.4898 5.53288 42.1066 4.38374C36.806 1.82846 31.2843 0.536133 25.6964 0.536133H25.527C23.9394 0.547147 22.5139 0.627917 21.173 0.778444C19.2097 0.998726 17.2648 1.36586 15.3899 1.87251C12.2957 2.70959 9.21631 4.05331 5.9748 5.97711C4.45718 6.8766 3.24899 7.73203 2.17339 8.6719C1.42195 9.32908 0.976247 10.1037 0.810488 11.0363C0.47897 12.894 0.294794 14.715 0.257958 16.4516C0.22849 17.9385 0.305844 19.4547 0.490021 20.9637C0.567375 21.5988 0.652096 22.1679 0.747868 22.7002C1.60981 27.6419 3.45895 32.2348 6.24001 36.3578V36.3651L6.31737 36.4752C9.31208 40.8662 13.2571 44.5633 18.042 47.4637C20.0459 48.6826 22.175 49.6885 24.0573 50.577C24.6098 50.8377 25.1513 50.9625 25.7148 50.9625C26.2158 50.9625 26.7094 50.8634 27.2251 50.6541C28.7906 50.0226 30.4298 49.2149 32.382 48.1172C32.5662 48.0144 32.7504 47.9153 32.9382 47.8088C33.7339 47.3719 34.5516 46.9203 35.3252 46.3733C37.3953 44.9121 39.156 43.4362 40.7105 41.8612C43.7752 38.7588 46.0921 35.5207 47.7903 31.9631C49.492 28.3945 50.564 24.6901 51.0023 20.9563C51.1275 19.899 51.2049 18.7976 51.2233 17.6925C51.2491 16.4148 51.1607 15.1776 51.0686 14.1349C51.0097 13.452 50.9102 12.7765 50.8071 12.1083V12.112ZM4.35036 13.6723C4.35036 13.4043 4.38351 13.1179 4.42403 12.8169C4.57137 12.8095 4.71503 12.8022 4.86237 12.7985C5.24914 12.7875 5.63591 12.7838 6.02269 12.7838C7.61397 12.7838 9.20894 12.8756 10.7634 13.0555C15.3531 13.5916 19.6739 14.7517 23.6042 16.5066C26.1237 17.6301 28.2491 18.915 30.1019 20.4387C30.3045 20.6039 30.5034 20.7801 30.706 20.9637C30.7834 21.0334 30.8607 21.0995 30.9418 21.1729C31.1333 22.7002 31.3249 24.4882 31.3433 26.2688C31.3654 28.8461 30.9491 31.4712 30.0688 34.3018C29.2989 36.791 28.2675 39.3756 26.7241 42.6835C26.2305 43.7409 25.7075 44.8129 25.1881 45.8776C25.0555 46.1456 24.9266 46.4137 24.794 46.6853C23.6484 46.1346 22.6023 45.4885 21.7145 44.9121C17.4969 42.1732 13.9607 38.7919 11.2128 34.8672C10.9734 34.5257 10.7413 34.1806 10.5129 33.8355C8.09283 30.1311 6.33947 26.0045 5.30808 21.5695C5.23441 21.2574 5.16811 20.9453 5.1018 20.6333C4.59348 18.1955 4.34668 15.9229 4.35405 13.6833L4.35036 13.6723Z" fill="#2A2B2A"/>
<path d="M99.1719 10.6985L89.1158 28.0604L84.633 20.3138L79.5681 11.5723L79.0708 10.6985H65.7291C59.9533 10.6985 54.9326 14.9867 54.0486 20.6736C53.9565 21.2721 53.9086 21.8815 53.9086 22.4873C53.9086 28.9856 59.2129 34.2724 65.7291 34.2724H82.7617L79.627 28.8865H65.7291C62.1892 28.8865 59.3087 26.0155 59.3087 22.4836C59.3087 21.999 59.3639 21.5217 59.4708 21.0628C60.1375 18.1808 62.7602 16.0844 65.7291 16.0844H75.9398L78.9898 21.3528L86.4747 34.2724H91.7532L105.408 10.6985H99.1682H99.1719Z" fill="#2A2B2A"/>
<path d="M108.944 10.6985L103.371 20.3138L95.2819 34.2724H101.526L115.18 10.6985H108.944Z" fill="#2A2B2A"/>
<path d="M63.5926 19.7925C62.1044 19.7925 60.8925 21.0004 60.8925 22.4836C60.8925 23.9668 62.1044 25.1747 63.5926 25.1747H77.4684L74.3338 19.7888H63.5926V19.7925Z" fill="#2A2B2A"/>
<path d="M32.6951 39.8932C33.9623 37.5399 34.8279 35.5133 35.4173 33.5234C35.9735 31.662 36.305 29.6501 36.4339 27.3812C36.5592 25.2664 36.5039 23.2105 36.4229 20.9305L36.3676 19.3592C36.3529 19.0435 36.2718 18.7461 36.1466 18.5074C35.9587 18.144 35.6641 17.8319 35.2626 17.5933C32.9493 16.2128 30.997 15.1445 29.1184 14.2266C25.7259 12.5671 22.5286 11.4107 19.3497 10.6947C17.5558 10.2909 15.6772 10.0009 13.7618 9.83197C12.3399 9.70714 10.8886 9.6484 9.32313 9.6484C8.99898 9.6484 8.67483 9.6484 8.34699 9.65574C10.233 8.71954 12.2184 7.94488 14.2738 7.33543C16.4765 6.6856 18.7935 6.23035 21.1546 5.98437C22.477 5.84485 23.8289 5.77143 25.166 5.77143C25.7185 5.77143 26.2821 5.78244 26.8383 5.80814C30.4961 5.96601 34.1649 6.63053 37.7453 7.77967C40.7621 8.74891 43.7236 10.0596 46.8031 11.7888C46.8767 11.8292 46.9062 11.8586 46.9099 11.8586C46.9099 11.8696 46.9173 11.9063 46.9136 11.9871C46.8915 12.424 46.873 12.8609 46.8546 13.2978V13.3969C46.8104 14.3771 46.7699 15.3868 46.6852 16.367C46.5452 17.9604 46.3721 19.4106 46.1548 20.8094L46.1437 20.8828C44.8839 28.9231 41.1783 35.7152 35.13 41.0717C33.3655 42.6321 31.4575 44.0786 29.4499 45.3819C30.5292 43.6674 31.6637 41.7876 32.6841 39.8932H32.6951ZM50.8697 12.2441C50.8181 11.8953 50.7665 11.5465 50.7187 11.1941C50.6487 10.6727 50.494 10.2211 50.2435 9.81361C50.0188 9.45015 49.7204 9.12707 49.3521 8.85905C46.9025 7.08578 44.5524 5.66496 42.1692 4.51582C36.8686 1.96054 31.347 0.668213 25.759 0.668213H25.5896C24.002 0.679227 22.5765 0.759997 21.2357 0.910524C19.2724 1.13081 17.3274 1.49794 15.4525 2.00459C12.3584 2.84167 9.27893 4.18539 6.03742 6.10919C4.51981 7.00868 3.31161 7.86411 2.23602 8.80398C1.48458 9.46116 1.03887 10.2358 0.87311 11.1684C0.541592 13.0261 0.357416 14.8471 0.320581 16.5836C0.291112 18.0705 0.368466 19.5868 0.552643 21.0958C0.629997 21.7309 0.714718 22.3 0.81049 22.8323C1.67244 27.774 3.52157 32.3669 6.30264 36.4898V36.4972L6.37999 36.6073C9.3747 40.9983 13.3198 44.6954 18.1047 47.5958C20.1085 48.8147 22.2376 49.8206 24.1199 50.7091C24.6724 50.9697 25.2139 51.0946 25.7775 51.0946C26.2784 51.0946 26.772 50.9954 27.2877 50.7862C28.8532 50.1547 30.4924 49.347 32.4447 48.2493C32.6288 48.1465 32.813 48.0473 33.0009 47.9409C33.7965 47.504 34.6143 47.0524 35.3878 46.5054C37.4579 45.0441 39.2187 43.5683 40.7731 41.9932C43.8378 38.8909 46.1548 35.6528 47.8529 32.0952C49.5547 28.5266 50.6266 24.8222 51.0649 21.0884C51.1901 20.0311 51.2675 18.9296 51.2859 17.8246C51.3117 16.5469 51.2233 15.3097 51.1312 14.267C51.0723 13.5841 50.9728 12.9086 50.8697 12.2404V12.2441ZM4.41298 13.8044C4.41298 13.5364 4.44614 13.25 4.48665 12.949C4.634 12.9416 4.77765 12.9343 4.92499 12.9306C5.31177 12.9196 5.69854 12.9159 6.08531 12.9159C7.67659 12.9159 9.27156 13.0077 10.826 13.1876C15.4157 13.7236 19.7365 14.8838 23.6668 16.6387C26.1863 17.7621 28.3117 19.0471 30.1646 20.5707C30.3671 20.736 30.5661 20.9122 30.7687 21.0958C30.846 21.1655 30.9234 21.2316 31.0044 21.305C31.1959 22.8323 31.3875 24.6203 31.4059 26.4009C31.428 28.9782 31.0118 31.6032 30.1314 34.4339C29.3615 36.9231 28.3302 39.5077 26.7868 42.8156C26.2932 43.873 25.7701 44.945 25.2507 46.0097C25.1181 46.2777 24.9892 46.5457 24.8566 46.8174C23.711 46.2667 22.6649 45.6206 21.7772 45.0441C17.5595 42.3053 14.0233 38.924 11.2754 34.9993C11.036 34.6578 10.8039 34.3127 10.5755 33.9676C8.15545 30.2632 6.40209 26.1366 5.3707 21.7015C5.29703 21.3895 5.23073 21.0774 5.16442 20.7653C4.6561 18.3275 4.4093 16.055 4.41667 13.8154L4.41298 13.8044Z" fill="#2A2B2A"/>
<path d="M99.2345 10.8342L89.1784 28.1962L84.6956 20.4496L79.6307 11.708L79.1335 10.8342H65.7917C60.0159 10.8342 54.9953 15.1224 54.1112 20.8094C54.0191 21.4078 53.9713 22.0172 53.9713 22.623C53.9713 29.1214 59.2755 34.4081 65.7917 34.4081H82.8244L79.6897 29.0222H65.7917C62.2518 29.0222 59.3713 26.1512 59.3713 22.6193C59.3713 22.1347 59.4266 21.6574 59.5334 21.1985C60.2001 18.3165 62.8228 16.2201 65.7917 16.2201H76.0025L79.0524 21.4886L86.5373 34.4081H91.8158L105.471 10.8342H99.2308H99.2345Z" fill="#2A2B2A"/>
<path d="M109.003 10.8342L103.434 20.4496L95.3445 34.4081H101.588L115.243 10.8342H109.003Z" fill="#2A2B2A"/>
<path d="M63.6552 19.9282C62.1671 19.9282 60.9552 21.1361 60.9552 22.6194C60.9552 24.1026 62.1671 25.3105 63.6552 25.3105H77.5311L74.3964 19.9246H63.6552V19.9282Z" fill="#2A2B2A"/>
<path d="M32.7575 40.0289C34.0247 37.6756 34.8903 35.649 35.4796 33.6591C36.0359 31.7977 36.3674 29.7858 36.4963 27.5169C36.6215 25.4022 36.5663 23.3462 36.4853 21.0663L36.43 19.4949C36.4153 19.1792 36.3342 18.8818 36.209 18.6432C36.0211 18.2797 35.7264 17.9676 35.3249 17.729C33.0117 16.3486 31.0594 15.2802 29.1808 14.3624C25.7883 12.7029 22.591 11.5464 19.4121 10.8305C17.6182 10.4266 15.7396 10.1366 13.8242 9.96771C12.4023 9.84288 10.951 9.78414 9.38551 9.78414C9.06136 9.78414 8.73721 9.78414 8.40937 9.79149C10.2953 8.85528 12.2808 8.08062 14.3362 7.47118C16.5389 6.82134 18.8559 6.36609 21.217 6.12011C22.5394 5.9806 23.8913 5.90717 25.2284 5.90717C25.7809 5.90717 26.3445 5.91818 26.9007 5.94388C30.5584 6.10175 34.2272 6.76627 37.8076 7.91541C40.8244 8.88466 43.786 10.1953 46.8654 11.9246C46.9391 11.9649 46.9686 11.9943 46.9723 11.9943C46.9723 12.0053 46.9796 12.042 46.9759 12.1228C46.9538 12.5597 46.9354 12.9966 46.917 13.4335V13.5326C46.8728 14.5129 46.8323 15.5225 46.7476 16.5028C46.6076 18.0961 46.4345 19.5463 46.2171 20.9451L46.2061 21.0186C44.9463 29.0589 41.2407 35.8509 35.1923 41.2075C33.4279 42.7678 31.5199 44.2143 29.5123 45.5177C30.5916 43.8031 31.7261 41.9234 32.7465 40.0289H32.7575ZM50.9321 12.3798C50.8805 12.031 50.8289 11.6822 50.781 11.3298C50.711 10.8085 50.5563 10.3569 50.3059 9.94936C50.0812 9.58589 49.7828 9.26281 49.4144 8.9948C46.9649 7.22152 44.6148 5.8007 42.2316 4.65156C36.931 2.09628 31.4093 0.803955 25.8214 0.803955H25.652C24.0644 0.814969 22.6389 0.895739 21.298 1.04627C19.3347 1.26655 17.3898 1.63369 15.5149 2.14034C12.4207 2.97741 9.34131 4.32113 6.0998 6.24494C4.58218 7.14442 3.37399 7.99985 2.29839 8.93973C1.54695 9.5969 1.10125 10.3716 0.935488 11.3041C0.60397 13.1618 0.419794 14.9828 0.382958 16.7194C0.35349 18.2063 0.430844 19.7226 0.615021 21.2315C0.692375 21.8666 0.777096 22.4357 0.872868 22.9681C1.73481 27.9097 3.58395 32.5026 6.36501 36.6256V36.6329L6.44237 36.7431C9.43708 41.134 13.3821 44.8311 18.167 47.7315C20.1709 48.9504 22.3 49.9564 24.1823 50.8448C24.7348 51.1055 25.2763 51.2303 25.8398 51.2303C26.3408 51.2303 26.8344 51.1312 27.3501 50.9219C28.9156 50.2904 30.5548 49.4827 32.507 48.385C32.6912 48.2822 32.8754 48.1831 33.0632 48.0766C33.8589 47.6397 34.6766 47.1881 35.4502 46.6411C37.5203 45.1799 39.2811 43.704 40.8355 42.129C43.9002 39.0267 46.2171 35.7885 47.9152 32.2309C49.617 28.6624 50.6889 24.9579 51.1273 21.2242C51.2525 20.1668 51.3299 19.0654 51.3483 17.9603C51.3741 16.6827 51.2857 15.4454 51.1936 14.4027C51.1346 13.7199 51.0352 13.0443 50.9321 12.3761V12.3798ZM4.47168 13.9401C4.47168 13.6721 4.50483 13.3858 4.54535 13.0847C4.69269 13.0774 4.83635 13.07 4.98369 13.0664C5.37046 13.0553 5.75723 13.0517 6.144 13.0517C7.73529 13.0517 9.33026 13.1435 10.8847 13.3234C15.4744 13.8594 19.7952 15.0195 23.7255 16.7744C26.245 17.8979 28.3704 19.1829 30.2232 20.7065C30.4258 20.8717 30.6248 21.0479 30.8273 21.2315C30.9047 21.3013 30.9821 21.3673 31.0631 21.4408C31.2546 22.9681 31.4462 24.756 31.4646 26.5366C31.4867 29.1139 31.0705 31.739 30.1901 34.5696C29.4202 37.0588 28.3888 39.6435 26.8454 42.9514C26.3519 44.0087 25.8288 45.0808 25.3094 46.1455C25.1768 46.4135 25.0479 46.6815 24.9153 46.9532C23.7697 46.4025 22.7236 45.7563 21.8358 45.1799C17.6182 42.441 14.082 39.0597 11.3341 35.135C11.0947 34.7936 10.8626 34.4485 10.6342 34.1033C8.21415 30.3989 6.46079 26.2723 5.4294 21.8373C5.35573 21.5252 5.28942 21.2131 5.22312 20.9011C4.71479 18.4633 4.46799 16.1907 4.47536 13.9512L4.47168 13.9401Z" fill="#2A2B2A"/>
<path d="M99.2932 10.9663L89.2372 28.3283L84.7543 20.5816L79.6894 11.8401L79.1922 10.9663H65.8504C60.0746 10.9663 55.054 15.2545 54.1699 20.9414C54.0779 21.5399 54.03 22.1493 54.03 22.7551C54.03 29.2534 59.3343 34.5402 65.8504 34.5402H82.8831L79.7484 29.1543H65.8504C62.3106 29.1543 59.43 26.2833 59.43 22.7514C59.43 22.2668 59.4853 21.7895 59.5921 21.3306C60.2588 18.4486 62.8815 16.3522 65.8504 16.3522H76.0612L79.1111 21.6206L86.5961 34.5402H91.8746L105.529 10.9663H99.2895H99.2932Z" fill="#2A2B2A"/>
<path d="M109.066 10.9663L103.493 20.5816L95.4072 34.5402H101.651L115.306 10.9663H109.066Z" fill="#2A2B2A"/>
<path d="M63.7178 20.0603C62.2296 20.0603 61.0178 21.2682 61.0178 22.7514C61.0178 24.2347 62.2296 25.4426 63.7178 25.4426H77.5937L74.459 20.0566H63.7178V20.0603Z" fill="#2A2B2A"/>
<path d="M32.82 40.1613C34.0871 37.8079 34.9527 35.7813 35.5421 33.7914C36.0983 31.93 36.4298 29.9181 36.5588 27.6492C36.684 25.5345 36.6288 23.4785 36.5477 21.1986L36.4925 19.6273C36.4777 19.3115 36.3967 19.0141 36.2715 18.7755C36.0836 18.412 35.7889 18.1 35.3874 17.8613C33.0741 16.4809 31.1219 15.4125 29.2433 14.4947C25.8507 12.8352 22.6534 11.6787 19.4746 10.9628C17.6807 10.559 15.8021 10.2689 13.8866 10.1C12.4648 9.97521 11.0135 9.91647 9.44798 9.91647C9.12383 9.91647 8.79968 9.91647 8.47184 9.92381C10.3578 8.98761 12.3432 8.21295 14.3986 7.6035C16.6014 6.95367 18.9183 6.49842 21.2795 6.25243C22.6019 6.11292 23.9537 6.03949 25.2908 6.03949C25.8434 6.03949 26.407 6.05051 26.9632 6.07621C30.6209 6.23408 34.2897 6.8986 37.8701 8.04774C40.8869 9.01698 43.8485 10.3277 46.9279 12.0569C47.0016 12.0973 47.031 12.1266 47.0347 12.1266C47.0347 12.1377 47.0421 12.1744 47.0384 12.2551C47.0163 12.692 46.9979 13.1289 46.9795 13.5658V13.6649C46.9353 14.6452 46.8948 15.6548 46.81 16.6351C46.6701 18.2285 46.4969 19.6787 46.2796 21.0775L46.2686 21.1509C45.0088 29.1912 41.3032 35.9832 35.2548 41.3398C33.4904 42.9001 31.5823 44.3466 29.5748 45.65C30.6541 43.9354 31.7886 42.0557 32.8089 40.1613H32.82ZM50.9945 12.5121C50.943 12.1634 50.8914 11.8146 50.8435 11.4621C50.7735 10.9408 50.6188 10.4892 50.3683 10.0817C50.1436 9.71821 49.8453 9.39513 49.4769 9.12712C47.0274 7.35385 44.6773 5.93302 42.294 4.78388C36.9934 2.2286 31.4718 0.936279 25.8839 0.936279H25.7145C24.1268 0.947293 22.7013 1.02806 21.3605 1.17859C19.3972 1.39887 17.4523 1.76601 15.5774 2.27266C12.4832 3.10973 9.40378 4.45346 6.16227 6.37726C4.64465 7.27675 3.43646 8.13218 2.36086 9.07205C1.60942 9.72923 1.16372 10.5039 0.997958 11.4364C0.66644 13.2941 0.482263 15.1151 0.445428 16.8517C0.41596 18.3386 0.493314 19.8549 0.67749 21.3638C0.754845 21.999 0.839566 22.568 0.935338 23.1004C1.79728 28.0421 3.64642 32.6349 6.42748 36.7579V36.7652L6.50484 36.8754C9.49955 41.2664 13.4446 44.9634 18.2295 47.8638C20.2334 49.0827 22.3624 50.0887 24.2447 50.9771C24.7973 51.2378 25.3387 51.3626 25.9023 51.3626C26.4033 51.3626 26.8969 51.2635 27.4126 51.0542C28.9781 50.4228 30.6172 49.6151 32.5695 48.5173C32.7537 48.4145 32.9379 48.3154 33.1257 48.2089C33.9214 47.772 34.7391 47.3205 35.5126 46.7734C37.5828 45.3122 39.3435 43.8363 40.898 42.2613C43.9627 39.159 46.2796 35.9208 47.9777 32.3633C49.6795 28.7947 50.7514 25.0903 51.1898 21.3565C51.315 20.2991 51.3924 19.1977 51.4108 18.0926C51.4366 16.815 51.3481 15.5777 51.2561 14.5351C51.1971 13.8522 51.0977 13.1767 50.9945 12.5085V12.5121ZM4.53783 14.0725C4.53783 13.8045 4.57098 13.5181 4.6115 13.217C4.75884 13.2097 4.9025 13.2024 5.04984 13.1987C5.43661 13.1877 5.82338 13.184 6.21015 13.184C7.80144 13.184 9.39641 13.2758 10.9509 13.4557C15.5405 13.9917 19.8613 15.1519 23.7916 16.9068C26.3112 18.0302 28.4366 19.3152 30.2894 20.8388C30.492 21.004 30.6909 21.1803 30.8935 21.3638C30.9709 21.4336 31.0482 21.4997 31.1292 21.5731C31.3208 23.1004 31.5123 24.8883 31.5307 26.669C31.5528 29.2463 31.1366 31.8713 30.2562 34.7019C29.4864 37.1911 28.455 39.7758 26.9116 43.0837C26.418 44.141 25.8949 45.2131 25.3756 46.2778C25.243 46.5458 25.114 46.8138 24.9814 47.0855C23.8359 46.5348 22.7897 45.8886 21.902 45.3122C17.6844 42.5734 14.1482 39.192 11.4002 35.2673C11.1608 34.9259 10.9288 34.5808 10.7004 34.2357C8.2803 30.5312 6.52694 26.4046 5.49555 21.9696C5.42188 21.6575 5.35558 21.3455 5.28927 21.0334C4.78094 18.5956 4.53415 16.323 4.54151 14.0835L4.53783 14.0725Z" fill="#2A2B2A"/>
<path d="M99.3559 11.1023L89.2998 28.4642L84.817 20.7176L79.7521 11.9761L79.2549 11.1023H65.9131C60.1373 11.1023 55.1167 15.3905 54.2326 21.0774C54.1405 21.6759 54.0927 22.2853 54.0927 22.8911C54.0927 29.3894 59.3969 34.6762 65.9131 34.6762H82.9457L79.8111 29.2903H65.9131C62.3732 29.2903 59.4927 26.4193 59.4927 22.8874C59.4927 22.4028 59.548 21.9255 59.6548 21.4666C60.3215 18.5846 62.9442 16.4882 65.9131 16.4882H76.1238L79.1738 21.7566L86.6587 34.6762H91.9372L105.592 11.1023H99.3522H99.3559Z" fill="#2A2B2A"/>
<path d="M109.128 11.1023L103.555 20.7176L95.4698 34.6762H101.713L115.368 11.1023H109.128Z" fill="#2A2B2A"/>
<path d="M63.7803 20.1963C62.2921 20.1963 61.0803 21.4042 61.0803 22.8874C61.0803 24.3707 62.2921 25.5785 63.7803 25.5785H77.6562L74.5215 20.1926H63.7803V20.1963Z" fill="#2A2B2A"/>
<path d="M32.879 40.297C34.1461 37.9437 35.0117 35.9171 35.6011 33.9272C36.1573 32.0658 36.4888 30.0539 36.6178 27.785C36.743 25.6703 36.6877 23.6143 36.6067 21.3344L36.5515 19.763C36.5367 19.4473 36.4557 19.1499 36.3304 18.9112C36.1426 18.5478 35.8479 18.2357 35.4464 17.9971C33.1331 16.6166 31.1809 15.5483 29.3023 14.6304C25.9097 12.971 22.7124 11.8145 19.5335 11.0986C17.7397 10.6947 15.8611 10.4047 13.9456 10.2358C12.5238 10.111 11.0725 10.0522 9.50697 10.0522C9.18282 10.0522 8.85867 10.0522 8.53083 10.0596C10.4168 9.12335 12.4022 8.34869 14.4576 7.73924C16.6604 7.08941 18.9773 6.63416 21.3385 6.38818C22.6609 6.24866 24.0127 6.17524 25.3498 6.17524C25.9024 6.17524 26.4659 6.18625 27.0222 6.21195C30.6799 6.36982 34.3487 7.03434 37.9291 8.18348C40.9459 9.15272 43.9075 10.4634 46.9869 12.1926C47.0606 12.233 47.09 12.2624 47.0937 12.2624C47.0937 12.2734 47.1011 12.3101 47.0974 12.3909C47.0753 12.8278 47.0569 13.2647 47.0385 13.7016V13.8007C46.9943 14.7809 46.9537 15.7906 46.869 16.7708C46.7291 18.3642 46.5559 19.8144 46.3386 21.2132L46.3275 21.2866C45.0678 29.3269 41.3621 36.119 35.3138 41.4755C33.5494 43.0359 31.6413 44.4824 29.6338 45.7857C30.7131 44.0712 31.8476 42.1914 32.8679 40.297H32.879ZM51.0535 12.6479C51.0019 12.2991 50.9504 11.9503 50.9025 11.5979C50.8325 11.0765 50.6778 10.6249 50.4273 10.2174C50.2026 9.85396 49.9043 9.53087 49.5359 9.26286C47.0864 7.48959 44.7363 6.06877 42.353 4.91962C37.0524 2.36435 31.5308 1.07202 25.9429 1.07202H25.7734C24.1858 1.08304 22.7603 1.16381 21.4195 1.31433C19.4562 1.53461 17.5113 1.90175 15.6364 2.4084C12.5422 3.24548 9.46277 4.5892 6.22126 6.513C4.70364 7.41249 3.49545 8.26792 2.41985 9.20779C1.66841 9.86497 1.22271 10.6396 1.05695 11.5722C0.72543 13.4299 0.541254 15.2509 0.504418 16.9874C0.47495 18.4743 0.552304 19.9906 0.736481 21.4996C0.813835 22.1347 0.898556 22.7038 0.994328 23.2361C1.85627 28.1778 3.70541 32.7707 6.48647 36.8936V36.901L6.56383 37.0111C9.55854 41.4021 13.5036 45.0992 18.2885 47.9996C20.2923 49.2185 22.4214 50.2244 24.3037 51.1129C24.8562 51.3736 25.3977 51.4984 25.9613 51.4984C26.4623 51.4984 26.9559 51.3993 27.4716 51.19C29.0371 50.5585 30.6762 49.7508 32.6285 48.6531C32.8127 48.5503 32.9968 48.4511 33.1847 48.3447C33.9803 47.9078 34.7981 47.4562 35.5716 46.9092C37.6418 45.448 39.4025 43.9721 40.957 42.397C44.0217 39.2947 46.3386 36.0566 48.0367 32.499C49.7385 28.9304 50.8104 25.226 51.2487 21.4922C51.374 20.4349 51.4513 19.3335 51.4698 18.2284C51.4955 16.9507 51.4071 15.7135 51.315 14.6708C51.2561 13.9879 51.1567 13.3124 51.0535 12.6442V12.6479ZM4.59682 14.2082C4.59682 13.9402 4.62997 13.6538 4.67049 13.3528C4.81783 13.3454 4.96149 13.3381 5.10883 13.3344C5.4956 13.3234 5.88237 13.3197 6.26915 13.3197C7.86043 13.3197 9.4554 13.4115 11.0098 13.5914C15.5995 14.1274 19.9203 15.2876 23.8506 17.0425C26.3702 18.166 28.4956 19.4509 30.3484 20.9746C30.551 21.1398 30.7499 21.316 30.9525 21.4996C31.0298 21.5693 31.1072 21.6354 31.1882 21.7088C31.3798 23.2361 31.5713 25.0241 31.5897 26.8047C31.6118 29.382 31.1956 32.007 30.3152 34.8377C29.5454 37.3269 28.514 39.9115 26.9706 43.2194C26.477 44.2768 25.9539 45.3488 25.4346 46.4135C25.302 46.6815 25.173 46.9496 25.0404 47.2212C23.8948 46.6705 22.8487 46.0244 21.961 45.448C17.7433 42.7091 14.2072 39.3278 11.4592 35.4031C11.2198 35.0616 10.9877 34.7165 10.7594 34.3714C8.33929 30.667 6.58593 26.5404 5.55454 22.1053C5.48087 21.7933 5.41457 21.4812 5.34826 21.1691C4.83994 18.7313 4.59314 16.4588 4.60051 14.2192L4.59682 14.2082Z" fill="#2A2B2A"/>
<path d="M99.4185 11.238L89.3625 28.6L84.8796 20.8534L79.8147 12.1118L79.3175 11.238H65.9757C60.1999 11.238 55.1793 15.5262 54.2952 21.2132C54.2032 21.8116 54.1553 22.4211 54.1553 23.0268C54.1553 29.5252 59.4596 34.812 65.9757 34.812H83.0084L79.8737 29.426H65.9757C62.4359 29.426 59.5553 26.555 59.5553 23.0232C59.5553 22.5385 59.6106 22.0613 59.7174 21.6023C60.3841 18.7203 63.0068 16.6239 65.9757 16.6239H76.1865L79.2364 21.8924L86.7214 34.812H91.9999L105.655 11.238H99.4148H99.4185Z" fill="#2A2B2A"/>
<path d="M109.191 11.238L103.618 20.8497L95.5324 34.812H101.772L115.431 11.238H109.191Z" fill="#2A2B2A"/>
<path d="M63.8429 20.3284C62.3547 20.3284 61.1429 21.5363 61.1429 23.0195C61.1429 24.5027 62.3547 25.7106 63.8429 25.7106H77.7187L74.5841 20.3247H63.8429V20.3284Z" fill="#2A2B2A"/>
<path d="M32.9416 40.4328C34.2088 38.0794 35.0744 36.0528 35.6638 34.0629C36.22 32.2015 36.5515 30.1896 36.6804 27.9207C36.8057 25.806 36.7504 23.75 36.6694 21.4701L36.6141 19.8987C36.5994 19.583 36.5183 19.2856 36.3931 19.047C36.2052 18.6835 35.9106 18.3715 35.5091 18.1328C33.1958 16.7524 31.2435 15.684 29.3649 14.7662C25.9724 13.1067 22.7751 11.9502 19.5962 11.2343C17.8023 10.8304 15.9237 10.5404 14.0083 10.3715C12.5864 10.2467 11.1351 10.188 9.56962 10.188C9.24547 10.188 8.92132 10.188 8.59349 10.1953C10.4795 9.25909 12.4649 8.48443 14.5203 7.87498C16.723 7.22515 19.04 6.7699 21.4011 6.52392C22.7235 6.38441 24.0754 6.31098 25.4125 6.31098C25.965 6.31098 26.5286 6.32199 27.0848 6.34769C30.7426 6.50556 34.4114 7.17008 37.9917 8.31922C41.0086 9.28846 43.9701 10.5991 47.0496 12.3284C47.1232 12.3688 47.1527 12.3981 47.1564 12.3981C47.1564 12.4091 47.1637 12.4458 47.1601 12.5266C47.138 12.9635 47.1195 13.4004 47.1011 13.8373V13.9364C47.0569 14.9167 47.0164 15.9263 46.9317 16.9066C46.7917 18.5 46.6186 19.9501 46.4013 21.3489L46.3902 21.4224C45.1304 29.4627 41.4248 36.2547 35.3764 41.6113C33.612 43.1716 31.704 44.6181 29.6964 45.9215C30.7757 44.2069 31.9102 42.3272 32.9306 40.4328H32.9416ZM51.1162 12.7836C51.0646 12.4348 51.013 12.0861 50.9651 11.7336C50.8952 11.2123 50.7405 10.7607 50.49 10.3532C50.2653 9.9897 49.9669 9.66662 49.5986 9.39861C47.149 7.62533 44.7989 6.20451 42.4157 5.05537C37.1151 2.50009 31.5935 1.20776 26.0055 1.20776H25.8361C24.2485 1.21878 22.823 1.29955 21.4822 1.45007C19.5188 1.67036 17.5739 2.03749 15.699 2.54414C12.6049 3.38122 9.52542 4.72494 6.28391 6.64875C4.7663 7.54823 3.5581 8.40366 2.48251 9.34354C1.73107 10.0007 1.28536 10.7754 1.1196 11.7079C0.788083 13.5656 0.603906 15.3866 0.567071 17.1232C0.537603 18.6101 0.614957 20.1264 0.799134 21.6353C0.876488 22.2705 0.961209 22.8395 1.05698 23.3719C1.91893 28.3135 3.76806 32.9064 6.54913 37.0294V37.0367L6.62648 37.1469C9.62119 41.5378 13.5663 45.2349 18.3512 48.1353C20.355 49.3542 22.4841 50.3602 24.3664 51.2486C24.9189 51.5093 25.4604 51.6341 26.024 51.6341C26.5249 51.6341 27.0185 51.535 27.5342 51.3257C29.0997 50.6943 30.7389 49.8866 32.6911 48.7888C32.8753 48.686 33.0595 48.5869 33.2474 48.4804C34.043 48.0435 34.8607 47.5919 35.6343 47.0449C37.7044 45.5837 39.4652 44.1078 41.0196 42.5328C44.0843 39.4305 46.4012 36.1923 48.0994 32.6348C49.8011 29.0662 50.8731 25.3618 51.3114 21.628C51.4366 20.5706 51.514 19.4692 51.5324 18.3641C51.5582 17.0865 51.4698 15.8492 51.3777 14.8065C51.3188 14.1237 51.2193 13.4481 51.1162 12.7799V12.7836ZM4.65947 14.344C4.65947 14.0759 4.69263 13.7896 4.73315 13.4885C4.88049 13.4812 5.02414 13.4738 5.17149 13.4702C5.55826 13.4591 5.94503 13.4555 6.3318 13.4555C7.92308 13.4555 9.51805 13.5473 11.0725 13.7272C15.6622 14.2632 19.983 15.4233 23.9133 17.1783C26.4328 18.3017 28.5582 19.5867 30.411 21.1103C30.6136 21.2755 30.8125 21.4517 31.0151 21.6353C31.0925 21.7051 31.1698 21.7711 31.2509 21.8446C31.4424 23.3719 31.634 25.1598 31.6524 26.9404C31.6745 29.5178 31.2583 32.1428 30.3779 34.9734C29.608 37.4626 28.5766 40.0473 27.0332 43.3552C26.5397 44.4125 26.0166 45.4846 25.4972 46.5493C25.3646 46.8173 25.2357 47.0853 25.1031 47.357C23.9575 46.8063 22.9114 46.1601 22.0236 45.5837C17.806 42.8449 14.2698 39.4635 11.5219 35.5388C11.2825 35.1974 11.0504 34.8523 10.822 34.5072C8.40194 30.8027 6.64858 26.6761 5.61719 22.2411C5.54352 21.929 5.47722 21.6169 5.41091 21.3049C4.90259 18.8671 4.65579 16.5945 4.66316 14.355L4.65947 14.344Z" fill="#2A2B2A"/>
<path d="M99.4811 11.3701L89.4251 28.7321L84.9422 20.9855L79.8773 12.2439L79.3801 11.3701H66.0383C60.2625 11.3701 55.2419 15.6583 54.3578 21.3452C54.2658 21.9437 54.2179 22.5531 54.2179 23.1589C54.2179 29.6572 59.5221 34.944 66.0383 34.944H83.071L79.9363 29.5581H66.0383C62.4984 29.5581 59.6179 26.6871 59.6179 23.1552C59.6179 22.6706 59.6732 22.1933 59.78 21.7344C60.4467 18.8524 63.0694 16.756 66.0383 16.756H76.2491L79.299 22.0245L86.784 34.944H92.0625L105.717 11.3701H99.4774H99.4811Z" fill="#2A2B2A"/>
<path d="M109.254 11.3701L103.68 20.9855L95.5914 34.944H101.835L115.493 11.3701H109.254Z" fill="#2A2B2A"/>
<path d="M63.9018 20.4641C62.4137 20.4641 61.2018 21.672 61.2018 23.1552C61.2018 24.6385 62.4137 25.8464 63.9018 25.8464H77.7777L74.643 20.4604H63.9018V20.4641Z" fill="#2A2B2A"/>
<path d="M33.0046 40.5651C34.2717 38.2117 35.1373 36.1851 35.7267 34.1952C36.2829 32.3339 36.6144 30.3219 36.7434 28.053C36.8686 25.9383 36.8134 23.8823 36.7323 21.6024L36.6771 20.0311C36.6623 19.7153 36.5813 19.4179 36.4561 19.1793C36.2682 18.8158 35.9735 18.5038 35.572 18.2651C33.2587 16.8847 31.3065 15.8163 29.4279 14.8985C26.0353 13.239 22.838 12.0825 19.6592 11.3666C17.8653 10.9628 15.9867 10.6727 14.0712 10.5038C12.6494 10.379 11.1981 10.3203 9.63258 10.3203C9.30843 10.3203 8.98428 10.3203 8.65644 10.3276C10.5424 9.39142 12.5278 8.61676 14.5832 8.00731C16.786 7.35748 19.1029 6.90222 21.4641 6.65624C22.7865 6.51673 24.1383 6.4433 25.4754 6.4433C26.028 6.4433 26.5916 6.45432 27.1478 6.48002C30.8055 6.63789 34.4743 7.3024 38.0547 8.45155C41.0715 9.42079 44.0331 10.7315 47.1125 12.4607C47.1862 12.5011 47.2156 12.5304 47.2193 12.5304C47.2193 12.5415 47.2267 12.5782 47.223 12.6589C47.2009 13.0958 47.1825 13.5327 47.1641 13.9696V14.0688C47.1199 15.049 47.0794 16.0586 46.9946 17.0389C46.8547 18.6323 46.6815 20.0825 46.4642 21.4813L46.4532 21.5547C45.1934 29.595 41.4878 36.3871 35.4394 41.7436C33.675 43.3039 31.7669 44.7505 29.7594 46.0538C30.8387 44.3393 31.9732 42.4595 32.9935 40.5651H33.0046ZM51.1791 12.9159C51.1276 12.5672 51.076 12.2184 51.0281 11.8659C50.9581 11.3446 50.8034 10.893 50.5529 10.4855C50.3282 10.122 50.0299 9.79894 49.6615 9.53093C47.212 7.75766 44.8619 6.33683 42.4786 5.18769C37.178 2.63241 31.6564 1.34009 26.0685 1.34009H25.8991C24.3114 1.3511 22.8859 1.43187 21.5451 1.5824C19.5818 1.80268 17.6369 2.16982 15.762 2.67647C12.6678 3.51354 9.58838 4.85727 6.34687 6.78107C4.82925 7.68056 3.62106 8.53599 2.54546 9.47586C1.79402 10.133 1.34832 10.9077 1.18256 11.8402C0.851041 13.6979 0.666864 15.5189 0.630029 17.2555C0.600561 18.7424 0.677915 20.2587 0.862091 21.7676C0.939445 22.4028 1.02417 22.9718 1.11994 23.5042C1.98188 28.4459 3.83102 33.0388 6.61208 37.1617V37.1691L6.68944 37.2792C9.68415 41.6702 13.6292 45.3672 18.4141 48.2676C20.418 49.4865 22.547 50.4925 24.4293 51.381C24.9819 51.6416 25.5233 51.7665 26.0869 51.7665C26.5879 51.7665 27.0815 51.6673 27.5972 51.4581C29.1627 50.8266 30.8018 50.0189 32.7541 48.9211C32.9383 48.8183 33.1225 48.7192 33.3103 48.6127C34.106 48.1759 34.9237 47.7243 35.6972 47.1772C37.7674 45.716 39.5281 44.2401 41.0826 42.6651C44.1473 39.5628 46.4642 36.3246 48.1623 32.7671C49.8641 29.1985 50.936 25.4941 51.3744 21.7603C51.4996 20.7029 51.577 19.6015 51.5954 18.4964C51.6212 17.2188 51.5327 15.9815 51.4407 14.9389C51.3817 14.256 51.2823 13.5805 51.1791 12.9123V12.9159ZM4.72243 14.4763C4.72243 14.2083 4.75558 13.9219 4.7961 13.6208C4.94344 13.6135 5.0871 13.6062 5.23444 13.6025C5.62121 13.5915 6.00798 13.5878 6.39476 13.5878C7.98604 13.5878 9.58101 13.6796 11.1355 13.8595C15.7251 14.3955 20.0459 15.5557 23.9762 17.3106C26.4958 18.434 28.6212 19.719 30.474 21.2426C30.6766 21.4078 30.8755 21.5841 31.0781 21.7676C31.1555 21.8374 31.2328 21.9035 31.3138 21.9769C31.5054 23.5042 31.6969 25.2922 31.7153 27.0728C31.7374 29.6501 31.3212 32.2751 30.4408 35.1057C29.671 37.5949 28.6396 40.1796 27.0962 43.4875C26.6026 44.5449 26.0795 45.6169 25.5602 46.6816C25.4276 46.9496 25.2986 47.2176 25.166 47.4893C24.0205 46.9386 22.9743 46.2924 22.0866 45.716C17.869 42.9772 14.3328 39.5958 11.5849 35.6711C11.3454 35.3297 11.1134 34.9846 10.885 34.6395C8.4649 30.9351 6.71154 26.8084 5.68015 22.3734C5.60648 22.0613 5.54018 21.7493 5.47387 21.4372C4.96555 18.9994 4.71875 16.7268 4.72612 14.4873L4.72243 14.4763Z" fill="#2A2B2A"/>
<path d="M99.5437 11.5061L89.4877 28.868L85.0049 21.1214L79.94 12.3799L79.4427 11.5061H66.101C60.3252 11.5061 55.3045 15.7943 54.4205 21.4812C54.3284 22.0797 54.2805 22.6891 54.2805 23.2949C54.2805 29.7932 59.5848 35.08 66.101 35.08H83.1336L79.9989 29.6941H66.101C62.5611 29.6941 59.6806 26.8231 59.6806 23.2912C59.6806 22.8066 59.7358 22.3293 59.8427 21.8704C60.5094 18.9884 63.132 16.892 66.101 16.892H76.3117L79.3617 22.1604L86.8466 35.08H92.1251L105.78 11.5061H99.5401H99.5437Z" fill="#2A2B2A"/>
<path d="M109.316 11.5061L103.743 21.1178L95.654 35.08H101.898L115.552 11.5061H109.316Z" fill="#2A2B2A"/>
<path d="M63.9646 20.5964C62.4765 20.5964 61.2646 21.8043 61.2646 23.2876C61.2646 24.7708 62.4765 25.9787 63.9646 25.9787H77.8405L74.7058 20.5928H63.9646V20.5964Z" fill="#2A2B2A"/>
<path d="M33.0672 40.7008C34.3343 38.3475 35.2 36.3209 35.7893 34.331C36.3456 32.4696 36.6771 30.4577 36.806 28.1888C36.9312 26.0741 36.876 24.0181 36.7949 21.7382L36.7397 20.1668C36.725 19.8511 36.6476 19.5537 36.5187 19.3151C36.3345 18.9479 36.0361 18.6395 35.6346 18.4009C33.3214 17.0204 31.3691 15.9521 29.4905 15.0342C26.098 13.3748 22.9007 12.2183 19.7218 11.5024C17.9279 11.0985 16.0493 10.8085 14.1339 10.6396C12.712 10.5148 11.2607 10.456 9.6952 10.456C9.37105 10.456 9.0469 10.456 8.71907 10.4634C10.605 9.52716 12.5905 8.7525 14.6459 8.14305C16.8486 7.49322 19.1656 7.03797 21.5267 6.79198C22.8491 6.65247 24.2009 6.57904 25.5381 6.57904C26.0906 6.57904 26.6542 6.59006 27.2104 6.61576C30.8681 6.77363 34.5369 7.43815 38.1173 8.58729C41.1341 9.55653 44.0957 10.8672 47.1751 12.5964C47.2488 12.6368 47.2783 12.6662 47.282 12.6662C47.282 12.6772 47.293 12.7139 47.2856 12.7947C47.2635 13.2316 47.2451 13.6685 47.2267 14.1054V14.2045C47.1825 15.1848 47.142 16.1944 47.0573 17.1746C46.9173 18.768 46.7442 20.2182 46.5268 21.617L46.5158 21.6904C45.256 29.7307 41.5504 36.5228 35.502 41.8793C33.7376 43.4397 31.8295 44.8862 29.822 46.1895C30.9013 44.475 32.0358 42.5953 33.0562 40.7008H33.0672ZM51.2418 13.0517C51.1902 12.7029 51.1386 12.3541 51.0907 12.0017C51.0207 11.4803 50.866 11.0288 50.6156 10.6212C50.3909 10.2578 50.0925 9.93468 49.7241 9.66667C47.2746 7.8934 44.9245 6.47257 42.5412 5.32343C37.2406 2.76815 31.719 1.47583 26.1311 1.47583H25.9617C24.3741 1.48684 22.9485 1.56761 21.6077 1.71814C19.6444 1.93842 17.6995 2.30556 15.8246 2.81221C12.7304 3.64929 9.651 4.99301 6.40949 6.91681C4.89188 7.8163 3.68368 8.67173 2.60809 9.6116C1.85665 10.2688 1.41094 11.0434 1.24518 11.976C0.913663 13.8337 0.729486 15.6547 0.692651 17.3912C0.663183 18.8782 0.740537 20.3944 0.924713 21.9034C1.00207 22.5385 1.08679 23.1076 1.18256 23.6399C2.04451 28.5816 3.89364 33.1745 6.67471 37.2975V37.3048L6.75206 37.4149C9.74677 41.8059 13.6918 45.503 18.4767 48.4034C20.4806 49.6223 22.6097 50.6282 24.4919 51.5167C25.0445 51.7774 25.586 51.9022 26.1495 51.9022C26.6505 51.9022 27.1441 51.8031 27.6598 51.5938C29.2253 50.9623 30.8645 50.1546 32.8167 49.0569C33.0009 48.9541 33.1851 48.8549 33.3729 48.7485C34.1686 48.3116 34.9863 47.86 35.7599 47.313C37.83 45.8518 39.5907 44.3759 41.1452 42.8009C44.2099 39.6985 46.5268 36.4604 48.2249 32.9028C49.9267 29.3342 51.006 25.6298 51.437 21.896C51.5659 20.8387 51.6396 19.7373 51.658 18.6322C51.6838 17.3545 51.5954 16.1173 51.5033 15.0746C51.4443 14.3917 51.3449 13.7162 51.2418 13.048V13.0517ZM4.78505 14.612C4.78505 14.344 4.81821 14.0576 4.85872 13.7566C5.00607 13.7492 5.14972 13.7419 5.29707 13.7382C5.68384 13.7272 6.07061 13.7235 6.45738 13.7235C8.04866 13.7235 9.64363 13.8153 11.1981 13.9952C15.7878 14.5312 20.1085 15.6914 24.0389 17.4463C26.5584 18.5698 28.6838 19.8547 30.5366 21.3784C30.7392 21.5436 30.9381 21.7198 31.1407 21.9034C31.2181 21.9731 31.2954 22.0392 31.3765 22.1126C31.568 23.6399 31.7596 25.4279 31.778 27.2085C31.8001 29.7858 31.3838 32.4109 30.5035 35.2415C29.7336 37.7307 28.7022 40.3153 27.1588 43.6232C26.6652 44.6806 26.1422 45.7526 25.6228 46.8173C25.4902 47.0853 25.3613 47.3534 25.2287 47.625C24.0831 47.0743 23.037 46.4282 22.1492 45.8518C17.9316 43.1129 14.3954 39.7316 11.6475 35.8069C11.408 35.4654 11.176 35.1203 10.9476 34.7752C8.52752 31.0708 6.77416 26.9442 5.74277 22.5091C5.6691 22.1971 5.6028 21.885 5.53649 21.5729C5.02817 19.1352 4.78137 16.8626 4.78874 14.623L4.78505 14.612Z" fill="#2A2B2A"/>
<path d="M99.6066 11.6382L89.5505 29.0001L85.0677 21.2535L80.0028 12.512L79.5055 11.6382H66.1638C60.388 11.6382 55.3673 15.9264 54.4833 21.6133C54.3912 22.2117 54.3433 22.8212 54.3433 23.427C54.3433 29.9253 59.6476 35.2121 66.1638 35.2121H83.1964L80.0617 29.8262H66.1638C62.6239 29.8262 59.7434 26.9552 59.7434 23.4233C59.7434 22.9387 59.7986 22.4614 59.9055 22.0025C60.5648 19.1168 63.1948 17.0241 66.1638 17.0241H76.3745L79.4245 22.2925L86.9094 35.2121H92.1879L105.843 11.6382H99.6029H99.6066Z" fill="#2A2B2A"/>
<path d="M109.375 11.6382L103.806 21.2535L95.7166 35.2121H101.96L115.615 11.6382H109.375Z" fill="#2A2B2A"/>
<path d="M64.0273 20.7322C62.5391 20.7322 61.3272 21.9401 61.3272 23.4233C61.3272 24.9065 62.5391 26.1144 64.0273 26.1144H77.9031L74.7684 20.7285H64.0273V20.7322Z" fill="#2A2B2A"/>
<path d="M50.1181 11.6492C50.0665 11.2967 50.0112 10.9443 49.967 10.5918C49.9081 10.1439 49.7755 9.75843 49.5619 9.41699C49.374 9.11226 49.1198 8.84058 48.8067 8.61296C46.383 6.85804 44.0587 5.4519 41.7012 4.31744C36.4706 1.79888 31.0263 0.52124 25.5194 0.52124H25.3537C23.7845 0.532254 22.3774 0.613025 21.0513 0.75988C19.1138 0.976491 17.1947 1.33996 15.3492 1.83926C12.3029 2.66532 9.26402 3.99069 6.06303 5.88879C4.5712 6.76992 3.38879 7.607 2.34266 8.52484C1.687 9.10125 1.29654 9.77678 1.1492 10.5918C0.821366 12.4238 0.640873 14.2191 0.604037 15.9263C0.574569 17.3875 0.651923 18.8781 0.832416 20.3614C0.909771 20.9855 0.994492 21.5472 1.08658 22.0722C1.94116 26.9625 3.76451 31.4967 6.53452 35.5829V35.5902L6.57504 35.6453C9.52555 39.9739 13.419 43.6195 18.1376 46.4795C20.1194 47.6838 22.2374 48.6824 24.105 49.5672C24.5875 49.7948 25.0553 49.9049 25.5379 49.9049C25.9688 49.9049 26.3998 49.8168 26.8492 49.6333C28.3926 49.0091 30.0134 48.2088 31.9472 47.122C32.1314 47.0192 32.3192 46.9164 32.5034 46.8136C33.2843 46.3841 34.0947 45.9362 34.8461 45.4075C36.8905 43.9646 38.6291 42.5071 40.1615 40.9578C43.1857 37.8959 45.4695 34.7054 47.1418 31.1993C48.8178 27.6821 49.886 24.0327 50.3096 20.354C50.4348 19.3113 50.5085 18.232 50.5269 17.1416C50.5527 15.886 50.4643 14.6671 50.3722 13.6391C50.3133 12.9672 50.2138 12.2953 50.1181 11.6455V11.6492ZM24.8638 46.8247C23.5082 46.2225 22.2816 45.4662 21.2539 44.8017C16.9773 42.0262 13.3969 38.6008 10.6085 34.621C10.3654 34.2722 10.1296 33.9271 9.90127 33.5746C7.44804 29.8188 5.67258 25.6335 4.62277 21.1434C4.5491 20.8276 4.4828 20.5119 4.41649 20.1962C3.9008 17.7216 3.65032 15.4123 3.65769 13.1398C3.65769 12.7616 3.71294 12.3688 3.76819 11.9576C3.77556 11.9025 3.78293 11.8474 3.79029 11.7924C4.09234 11.7703 4.38334 11.752 4.67434 11.7446C5.06479 11.7336 5.45893 11.73 5.84939 11.73C7.46277 11.73 9.07984 11.8217 10.6527 12.0053C15.2976 12.5487 19.6663 13.7235 23.6482 15.5005C26.2119 16.6423 28.3742 17.9529 30.2638 19.5023C30.4775 19.6748 30.6801 19.8584 30.8863 20.0383C30.9895 20.1301 31.0963 20.2255 31.2105 20.3247C31.2547 20.3614 31.2621 20.3797 31.2658 20.4017L31.2768 20.4495C31.4757 22.0208 31.682 23.8749 31.6967 25.7289C31.7188 28.3613 31.2952 31.0377 30.3964 33.9198C29.6192 36.4347 28.5768 39.0377 27.026 42.3676C26.525 43.436 25.9983 44.519 25.4863 45.5654C25.28 45.9876 25.0737 46.4098 24.8675 46.832L24.8638 46.8247ZM31.9988 38.9752C33.2475 36.6549 34.1021 34.6614 34.6804 32.7009C35.2255 30.8799 35.5497 28.9083 35.6786 26.6761C35.8039 24.5834 35.7486 22.5385 35.6676 20.2769L35.6123 18.7129C35.6013 18.4706 35.5423 18.2503 35.4466 18.0704C35.3066 17.7951 35.0782 17.5564 34.7614 17.3729C32.4592 15.9998 30.5217 14.9351 28.6578 14.0246C25.3021 12.3835 22.1416 11.2417 19.0033 10.5331C17.2315 10.1329 15.3787 9.84654 13.4853 9.68133C12.0782 9.56017 10.6417 9.49776 9.09458 9.49776C8.17738 9.49776 7.24176 9.51979 6.24352 9.56017C6.13302 9.56384 6.02251 9.57119 5.91201 9.57853C8.39471 8.14669 11.0726 7.00122 13.9016 6.16782C16.1338 5.50697 18.4802 5.04805 20.8782 4.79839C22.219 4.65521 23.5893 4.58545 24.9448 4.58545C25.5084 4.58545 26.0757 4.59647 26.6392 4.62217C30.3412 4.78371 34.0579 5.4519 37.6861 6.61573C40.7361 7.59231 43.7271 8.91768 46.836 10.6653C46.976 10.7424 47.0755 10.8268 47.1307 10.9149C47.1749 10.9847 47.2265 11.0985 47.2154 11.3408C47.1933 11.8071 47.1749 12.277 47.1528 12.7469C47.1123 13.7345 47.0718 14.7515 46.9871 15.7428C46.8471 17.3472 46.6703 18.8084 46.453 20.2182L46.4456 20.2586V20.2806C45.1711 28.4494 41.4065 35.3516 35.2587 40.7963C33.1886 42.6283 30.9232 44.3024 28.5289 45.7746C28.2416 45.9509 27.9432 46.1051 27.6338 46.2482C29.1293 43.9279 30.658 41.4828 32.0061 38.9826L31.9988 38.9752Z" fill="white"/>
<path d="M99.2969 10.6836L88.9388 28.5632L84.0029 20.0383L78.8681 11.1756L78.6286 10.6836H65.5558C60.0342 10.6836 55.2345 14.7845 54.391 20.2182C54.3026 20.7909 54.2547 21.371 54.2547 21.9511C54.2547 28.163 59.3232 33.2185 65.5558 33.2185H81.6823L79.1554 28.8753H65.5558C61.7286 28.8753 58.616 25.7693 58.616 21.9547C58.616 21.4297 58.6749 20.9121 58.7891 20.4164C59.5001 17.2957 62.3474 15.0305 65.5558 15.0305H76.0686L79.2696 20.5596L86.6035 33.2185H91.2816L104.336 10.6873H99.3043L99.2969 10.6836Z" fill="white"/>
<path d="M109.069 10.6836L103.647 20.0383L96.0148 33.2148H101.05L114.105 10.6836H109.069Z" fill="white"/>
<path d="M63.4193 19.7776C62.2184 19.7776 61.2386 20.7505 61.2386 21.951C61.2386 23.1516 62.2148 24.1245 63.4193 24.1245H76.389L73.8621 19.7813H63.4193V19.7776Z" fill="white"/>
<path d="M50.0775 17.0205C50.0591 18.0852 49.9891 19.1389 49.8639 20.1815H47.0349C47.267 18.6836 47.4401 17.182 47.5727 15.6731C47.698 14.2045 47.7274 12.725 47.8011 11.2528C47.8158 10.9627 47.7679 10.7241 47.6353 10.5185C47.5322 10.3569 47.3738 10.2174 47.1565 10.0963C44.2023 8.43681 41.1376 7.04169 37.9108 6.00636C34.2715 4.83886 30.5438 4.15231 26.7276 3.9871C24.779 3.90266 22.8304 3.9614 20.8892 4.167C18.4912 4.41665 16.1338 4.8719 13.8205 5.55478C10.4943 6.53504 7.35225 7.9375 4.42384 9.79889C4.30965 9.87232 4.19914 9.95309 4.08864 10.0302C4.096 10.0522 4.10705 10.0742 4.1181 10.0999C4.26913 10.0926 4.42015 10.0853 4.57118 10.0779C5.16054 10.0412 5.74623 9.99348 6.33559 9.96778C8.72989 9.86498 11.1205 9.87599 13.5111 10.0853C15.3455 10.2468 17.1652 10.5222 18.9591 10.926C22.2853 11.675 25.4457 12.8828 28.4994 14.3771C30.5732 15.3904 32.5844 16.5212 34.5662 17.7034C34.7835 17.8319 34.9529 17.9897 35.0524 18.188C35.1187 18.3128 35.1555 18.456 35.1629 18.6212C35.1813 19.1425 35.1997 19.6602 35.2182 20.1815H31.8477C31.8477 20.1815 31.8404 20.1558 31.8367 20.1448C31.7998 20.0053 31.7262 19.8989 31.612 19.8034C31.2952 19.528 30.9858 19.2417 30.6616 18.9773C28.6136 17.2958 26.3408 15.9778 23.9281 14.9021C19.7326 13.0297 15.3381 11.8989 10.7816 11.3666C8.7704 11.1316 6.75183 11.0472 4.72957 11.1022C4.2986 11.1132 3.87131 11.15 3.39613 11.1793C3.32615 11.8108 3.20459 12.4166 3.20459 13.0187C3.19722 15.4381 3.48085 17.8209 3.97445 20.1815H1.42176C1.24495 18.735 1.1676 17.2812 1.19706 15.82C1.2339 14.054 1.42544 12.3028 1.73486 10.5662C1.86378 9.84662 2.21372 9.27756 2.75888 8.80028C3.88604 7.81268 5.11634 6.97927 6.40189 6.2193C9.2861 4.50844 12.3066 3.10597 15.5592 2.22484C17.4046 1.72553 19.2795 1.37308 21.1839 1.16014C22.5947 1.00227 24.0129 0.936188 25.431 0.925174C31.1037 0.899474 36.4595 2.2175 41.5501 4.66998C44.0292 5.86318 46.3498 7.30603 48.5746 8.91776C48.8325 9.105 49.0388 9.32528 49.1898 9.57127C49.3666 9.85763 49.4734 10.1807 49.5213 10.5442C49.6539 11.5575 49.8381 12.5598 49.9265 13.5731C50.0259 14.7185 50.0996 15.8714 50.0775 17.0205Z" fill="url(#paint0_linear_160_99542)"/>
<path d="M83.6234 20.1816H79.7925L76.4405 14.3919H65.6256C62.0821 14.3919 59.1058 16.8701 58.3506 20.1816H54.9765C55.7759 15.038 60.2477 11.0876 65.6256 11.0876H78.4185V11.1978L83.6234 20.1816Z" fill="url(#paint1_linear_160_99542)"/>
<path d="M103.5 11.0876L98.2322 20.1816H94.4051L99.6725 11.0876H103.5Z" fill="url(#paint2_linear_160_99542)"/>
<path d="M113.272 11.0876L108.005 20.1816H104.174L109.445 11.0876H113.272Z" fill="url(#paint3_linear_160_99542)"/>
<path d="M47.035 20.1814C47.035 20.1814 47.035 20.2218 47.0277 20.2401C45.7348 28.5264 41.9739 35.4837 35.6713 41.0642C33.5496 42.9403 31.2806 44.6144 28.8715 46.0976C28.1164 46.5639 27.2839 46.8723 26.4736 47.2284C26.4552 47.2064 26.4404 47.1844 26.422 47.1624C26.492 47.0522 26.5583 46.9384 26.6283 46.8283C28.3706 44.1408 30.0945 41.4387 31.6121 38.6154C32.6766 36.6365 33.6123 34.6026 34.2532 32.4401C34.8278 30.5127 35.1151 28.5374 35.2293 26.5329C35.3546 24.4145 35.2919 22.2961 35.2183 20.1814H31.8478C31.8552 20.2071 31.8589 20.2328 31.8626 20.2622C32.0873 22.0354 32.2714 23.8124 32.2862 25.6004C32.312 28.4567 31.811 31.2322 30.9638 33.9491C30.0576 36.8751 28.8605 39.6911 27.5676 42.463C26.853 43.994 26.0978 45.5102 25.3611 47.0302C25.3096 47.1367 25.2506 47.2394 25.1806 47.3643C25.0849 47.3312 24.9965 47.3055 24.9154 47.2688C23.5488 46.6814 22.2817 45.9251 21.0404 45.1211C16.7896 42.3602 13.1613 38.9531 10.2513 34.8008C10.0045 34.4484 9.76507 34.0959 9.53301 33.7398C7.00242 29.8665 5.23801 25.6591 4.18452 21.1396C4.11085 20.8202 4.04087 20.5008 3.97456 20.1814H1.42188C1.49186 20.7431 1.5729 21.3048 1.67236 21.8666C2.51588 26.6981 4.29871 31.1515 7.05768 35.2083C7.06504 35.2194 7.07241 35.2267 7.07609 35.2377C10.0782 39.6397 13.9238 43.1605 18.4803 45.9214C20.3847 47.0779 22.3885 48.0325 24.3997 48.9834C25.1806 49.3505 25.9247 49.3615 26.7277 49.0384C28.47 48.3335 30.135 47.4744 31.7668 46.5566C32.7319 46.0169 33.7191 45.5066 34.6179 44.8714C36.4854 43.5534 38.2535 42.1105 39.8632 40.4804C42.6701 37.6388 45.0201 34.4741 46.744 30.8651C48.3758 27.4434 49.4367 23.8858 49.864 20.1814H47.035Z" fill="url(#paint4_linear_160_99542)"/>
<path d="M75.5565 23.4856H63.4929C62.5757 23.4856 61.8353 22.7477 61.8353 21.8335C61.8353 20.9193 62.5757 20.1814 63.4929 20.1814H73.6336L75.5565 23.4856Z" fill="url(#paint5_linear_160_99542)"/>
<path d="M78.9233 29.2754L80.8461 32.5796H65.6257C59.6842 32.5796 54.8477 27.7591 54.8477 21.8335C54.8477 21.2718 54.8919 20.7211 54.9766 20.1814H58.3508C58.2255 20.7137 58.1629 21.2645 58.1629 21.8335C58.1629 25.9344 61.5112 29.2754 65.6257 29.2754H78.9233Z" fill="url(#paint6_linear_160_99542)"/>
<path d="M98.2323 20.1814L91.0494 32.5796H86.9755L79.7926 20.1814H83.6234L89.0125 29.4883L94.4051 20.1814H98.2323Z" fill="url(#paint7_linear_160_99542)"/>
<path d="M108.005 20.1814L100.822 32.5796H96.991L104.174 20.1814H108.005Z" fill="url(#paint8_linear_160_99542)"/>
</g>
<defs>
<linearGradient id="paint0_linear_160_99542" x1="25.2837" y1="-6.12754" x2="26.4034" y2="66.2391" gradientUnits="userSpaceOnUse">
<stop stop-color="#DDD9D6"/>
<stop offset="0.23" stop-color="#DBD7D4"/>
<stop offset="0.31" stop-color="#D4D1CE"/>
<stop offset="0.37" stop-color="#C8C6C4"/>
<stop offset="0.41" stop-color="#B7B7B5"/>
<stop offset="0.45" stop-color="#A1A3A2"/>
<stop offset="0.49" stop-color="#868A8B"/>
<stop offset="0.52" stop-color="#666E70"/>
<stop offset="0.55" stop-color="#455053"/>
<stop offset="0.56" stop-color="#B7BABB"/>
<stop offset="0.57" stop-color="#E0E0E1"/>
<stop offset="0.63" stop-color="#D6D7D8"/>
<stop offset="0.73" stop-color="#BCBEC2"/>
<stop offset="0.86" stop-color="#91989D"/>
<stop offset="0.88" stop-color="#8A9197"/>
<stop offset="1" stop-color="#A6A8AB"/>
</linearGradient>
<linearGradient id="paint1_linear_160_99542" x1="71.3609" y1="-0.367051" x2="70.6143" y2="7.13406" gradientUnits="userSpaceOnUse">
<stop stop-color="#DDD9D6"/>
<stop offset="0.04" stop-color="#CECBC9"/>
<stop offset="0.11" stop-color="#A7A8A7"/>
<stop offset="0.21" stop-color="#687071"/>
<stop offset="0.26" stop-color="#455053"/>
<stop offset="0.37" stop-color="#878D8F"/>
<stop offset="0.46" stop-color="#B7BABB"/>
<stop offset="0.53" stop-color="#D4D5D6"/>
<stop offset="0.57" stop-color="#E0E0E1"/>
<stop offset="0.63" stop-color="#D6D7D8"/>
<stop offset="0.73" stop-color="#BCBEC2"/>
<stop offset="0.86" stop-color="#91989D"/>
<stop offset="0.88" stop-color="#8A9197"/>
<stop offset="1" stop-color="#A6A8AB"/>
</linearGradient>
<linearGradient id="paint2_linear_160_99542" x1="100.269" y1="2.51498" x2="99.5227" y2="10.0161" gradientUnits="userSpaceOnUse">
<stop stop-color="#DDD9D6"/>
<stop offset="0.04" stop-color="#CECBC9"/>
<stop offset="0.11" stop-color="#A7A8A7"/>
<stop offset="0.21" stop-color="#687071"/>
<stop offset="0.26" stop-color="#455053"/>
<stop offset="0.37" stop-color="#878D8F"/>
<stop offset="0.46" stop-color="#B7BABB"/>
<stop offset="0.53" stop-color="#D4D5D6"/>
<stop offset="0.57" stop-color="#E0E0E1"/>
<stop offset="0.63" stop-color="#D6D7D8"/>
<stop offset="0.73" stop-color="#BCBEC2"/>
<stop offset="0.86" stop-color="#91989D"/>
<stop offset="0.88" stop-color="#8A9197"/>
<stop offset="1" stop-color="#A6A8AB"/>
</linearGradient>
<linearGradient id="paint3_linear_160_99542" x1="109.942" y1="3.48055" x2="109.196" y2="10.978" gradientUnits="userSpaceOnUse">
<stop stop-color="#DDD9D6"/>
<stop offset="0.04" stop-color="#CECBC9"/>
<stop offset="0.11" stop-color="#A7A8A7"/>
<stop offset="0.21" stop-color="#687071"/>
<stop offset="0.26" stop-color="#455053"/>
<stop offset="0.37" stop-color="#878D8F"/>
<stop offset="0.46" stop-color="#B7BABB"/>
<stop offset="0.53" stop-color="#D4D5D6"/>
<stop offset="0.57" stop-color="#E0E0E1"/>
<stop offset="0.63" stop-color="#D6D7D8"/>
<stop offset="0.73" stop-color="#BCBEC2"/>
<stop offset="0.86" stop-color="#91989D"/>
<stop offset="0.88" stop-color="#8A9197"/>
<stop offset="1" stop-color="#A6A8AB"/>
</linearGradient>
<linearGradient id="paint4_linear_160_99542" x1="25.829" y1="40.9467" x2="25.3313" y2="-14.671" gradientUnits="userSpaceOnUse">
<stop stop-color="#DDD9D6"/>
<stop offset="0.04" stop-color="#CECBC9"/>
<stop offset="0.11" stop-color="#A7A8A7"/>
<stop offset="0.21" stop-color="#687071"/>
<stop offset="0.26" stop-color="#455053"/>
<stop offset="0.37" stop-color="#878D8F"/>
<stop offset="0.46" stop-color="#B7BABB"/>
<stop offset="0.53" stop-color="#D4D5D6"/>
<stop offset="0.57" stop-color="#E0E0E1"/>
<stop offset="0.63" stop-color="#D6D7D8"/>
<stop offset="0.73" stop-color="#BCBEC2"/>
<stop offset="0.86" stop-color="#91989D"/>
<stop offset="0.88" stop-color="#8A9197"/>
<stop offset="1" stop-color="#A6A8AB"/>
</linearGradient>
<linearGradient id="paint5_linear_160_99542" x1="70.3369" y1="35.7333" x2="64.0789" y2="-14.2355" gradientUnits="userSpaceOnUse">
<stop stop-color="#DDD9D6"/>
<stop offset="0.08" stop-color="#DBD7D4"/>
<stop offset="0.1" stop-color="#D4D1CE"/>
<stop offset="0.12" stop-color="#C8C7C5"/>
<stop offset="0.14" stop-color="#B7B8B7"/>
<stop offset="0.15" stop-color="#9CA0A1"/>
<stop offset="0.18" stop-color="#95999B"/>
<stop offset="0.21" stop-color="#83898A"/>
<stop offset="0.25" stop-color="#656D6F"/>
<stop offset="0.28" stop-color="#455053"/>
<stop offset="0.38" stop-color="#878D8F"/>
<stop offset="0.47" stop-color="#B7BABB"/>
<stop offset="0.54" stop-color="#D4D5D6"/>
<stop offset="0.57" stop-color="#E0E0E1"/>
<stop offset="0.63" stop-color="#D6D7D8"/>
<stop offset="0.73" stop-color="#BCBEC2"/>
<stop offset="0.86" stop-color="#91989D"/>
<stop offset="0.88" stop-color="#8A9197"/>
<stop offset="1" stop-color="#A6A8AB"/>
</linearGradient>
<linearGradient id="paint6_linear_160_99542" x1="68.9041" y1="35.9132" x2="62.6424" y2="-14.0556" gradientUnits="userSpaceOnUse">
<stop stop-color="#DDD9D6"/>
<stop offset="0.04" stop-color="#CECBC9"/>
<stop offset="0.11" stop-color="#A7A8A7"/>
<stop offset="0.21" stop-color="#687071"/>
<stop offset="0.26" stop-color="#455053"/>
<stop offset="0.37" stop-color="#878D8F"/>
<stop offset="0.46" stop-color="#B7BABB"/>
<stop offset="0.53" stop-color="#D4D5D6"/>
<stop offset="0.57" stop-color="#E0E0E1"/>
<stop offset="0.63" stop-color="#D6D7D8"/>
<stop offset="0.73" stop-color="#BCBEC2"/>
<stop offset="0.86" stop-color="#91989D"/>
<stop offset="0.88" stop-color="#8A9197"/>
<stop offset="1" stop-color="#A6A8AB"/>
</linearGradient>
<linearGradient id="paint7_linear_160_99542" x1="90.6516" y1="33.1891" x2="84.3936" y2="-16.7798" gradientUnits="userSpaceOnUse">
<stop stop-color="#DDD9D6"/>
<stop offset="0.04" stop-color="#CECBC9"/>
<stop offset="0.11" stop-color="#A7A8A7"/>
<stop offset="0.21" stop-color="#687071"/>
<stop offset="0.26" stop-color="#455053"/>
<stop offset="0.37" stop-color="#878D8F"/>
<stop offset="0.46" stop-color="#B7BABB"/>
<stop offset="0.53" stop-color="#D4D5D6"/>
<stop offset="0.57" stop-color="#E0E0E1"/>
<stop offset="0.63" stop-color="#D6D7D8"/>
<stop offset="0.73" stop-color="#BCBEC2"/>
<stop offset="0.86" stop-color="#91989D"/>
<stop offset="0.88" stop-color="#8A9197"/>
<stop offset="1" stop-color="#A6A8AB"/>
</linearGradient>
<linearGradient id="paint8_linear_160_99542" x1="103.161" y1="31.6214" x2="96.8992" y2="-18.3475" gradientUnits="userSpaceOnUse">
<stop stop-color="#DDD9D6"/>
<stop offset="0.04" stop-color="#CECBC9"/>
<stop offset="0.11" stop-color="#A7A8A7"/>
<stop offset="0.21" stop-color="#687071"/>
<stop offset="0.26" stop-color="#455053"/>
<stop offset="0.37" stop-color="#878D8F"/>
<stop offset="0.46" stop-color="#B7BABB"/>
<stop offset="0.53" stop-color="#D4D5D6"/>
<stop offset="0.57" stop-color="#E0E0E1"/>
<stop offset="0.63" stop-color="#D6D7D8"/>
<stop offset="0.73" stop-color="#BCBEC2"/>
<stop offset="0.86" stop-color="#91989D"/>
<stop offset="0.88" stop-color="#8A9197"/>
<stop offset="1" stop-color="#A6A8AB"/>
</linearGradient>
<clipPath id="clip0_160_99542">
<rect width="117" height="53" fill="white"/>
</clipPath>
</defs>
</svg>
